<svg viewBox="0 0 444 465" xmlns="http://www.w3.org/2000/svg">
  <defs>
    <linearGradient id="g" x1="0%" y1="0%" x2="100%" y2="100%">
      <stop offset="0%" stop-color="#00B4D8"/>
      <stop offset="100%" stop-color="#7209B7"/>
    </linearGradient>
  </defs>
  <g fill="url(#g)" transform="translate(0,465) scale(0.1,-0.1)">
    <path d="M2050 3934 c-264 -33 -549 -138 -762 -281 -619 -415 -912 -1172 -732 -1888 106 -420 379 -800 746 -1039 383 -249 861 -339 1308 -245 138 29 239 64 379 130 202 96 315 174 470 323 214 208 350 417 440 679 130 376 133 756 10 1135 l-21 62 -56 -51 c-69 -61 -195 -125 -277 -140 -90 -17 -86 -15 -74 -46 24 -64 50 -216 55 -333 17 -335 -112 -674 -353 -930 -185 -197 -445 -339 -708 -385 -116 -20 -325 -21 -437 -1 -317 57 -610 234 -800 483 -181 236 -271 497 -271 788 0 345 133 665 378 910 363 364 911 474 1396 280 13 -5 21 11 43 78 31 95 87 187 158 261 27 28 48 51 48 53 0 7 -117 54 -204 82 -183 59 -273 73 -496 76 -113 2 -221 1 -240 -1z"/>
    <path d="M3314 3716 c-86 -20 -159 -59 -224 -122 -103 -98 -146 -209 -138 -361 5 -82 10 -103 42 -169 175 -353 665 -351 834 3 36 77 37 80 37 198 0 118 -1 121 -37 195 -37 76 -111 161 -173 199 -96 58 -234 81 -341 57z"/>
  </g>
</svg>
